<?xml version="1.0" encoding="UTF-8" standalone="no"?>
<!DOCTYPE svg PUBLIC "-//W3C//DTD SVG 1.1//EN"
 "http://www.w3.org/Graphics/SVG/1.1/DTD/svg11.dtd">
<!-- Generated by graphviz version 14.1.5 (20260411.2331)
 -->
<!-- Title: HashTable Pages: 1 -->
<svg width="418pt" height="118pt"
 viewBox="0.00 0.00 418.00 118.00" xmlns="http://www.w3.org/2000/svg" xmlns:xlink="http://www.w3.org/1999/xlink">
<g id="graph0" class="graph" transform="scale(1 1) rotate(0) translate(4 114)">
<title>HashTable</title>
<polygon fill="white" stroke="none" points="-4,4 -4,-114 413.5,-114 413.5,4 -4,4"/>
<!-- bucket2 -->
<g id="node1" class="node">
<title>bucket2</title>
<polygon fill="none" stroke="black" points="0,-0.5 0,-36.5 143,-36.5 143,-0.5 0,-0.5"/>
<text xml:space="preserve" text-anchor="middle" x="24.12" y="-13.45" font-family="Times New Roman,serif" font-size="14.00">LD: 2</text>
<polyline fill="none" stroke="black" points="48.25,-0.5 48.25,-36.5"/>
<text xml:space="preserve" text-anchor="middle" x="95.62" y="-13.45" font-family="Times New Roman,serif" font-size="14.00">Keys: [10, 30]</text>
</g>
<!-- bucket1 -->
<g id="node2" class="node">
<title>bucket1</title>
<polygon fill="none" stroke="black" points="161.25,-0.5 161.25,-36.5 269.75,-36.5 269.75,-0.5 161.25,-0.5"/>
<text xml:space="preserve" text-anchor="middle" x="185.38" y="-13.45" font-family="Times New Roman,serif" font-size="14.00">LD: 1</text>
<polyline fill="none" stroke="black" points="209.5,-0.5 209.5,-36.5"/>
<text xml:space="preserve" text-anchor="middle" x="239.62" y="-13.45" font-family="Times New Roman,serif" font-size="14.00">Keys: []</text>
</g>
<!-- bucket0 -->
<g id="node3" class="node">
<title>bucket0</title>
<polygon fill="none" stroke="black" points="287.5,-0.5 287.5,-36.5 409.5,-36.5 409.5,-0.5 287.5,-0.5"/>
<text xml:space="preserve" text-anchor="middle" x="311.62" y="-13.45" font-family="Times New Roman,serif" font-size="14.00">LD: 2</text>
<polyline fill="none" stroke="black" points="335.75,-0.5 335.75,-36.5"/>
<text xml:space="preserve" text-anchor="middle" x="372.62" y="-13.45" font-family="Times New Roman,serif" font-size="14.00">Keys: [20]</text>
</g>
<!-- dir0 -->
<g id="node4" class="node">
<title>dir0</title>
<polygon fill="none" stroke="black" points="321.5,-73.5 321.5,-109.5 375.5,-109.5 375.5,-73.5 321.5,-73.5"/>
<text xml:space="preserve" text-anchor="middle" x="348.25" y="-86.45" font-family="Times New Roman,serif" font-size="14.00">00</text>
</g>
<!-- dir0&#45;&gt;bucket0 -->
<g id="edge1" class="edge">
<title>dir0&#45;&gt;bucket0</title>
<path fill="none" stroke="black" d="M348.5,-73.31C348.5,-65.73 348.5,-56.6 348.5,-48.04"/>
<polygon fill="black" stroke="black" points="352,-48.04 348.5,-38.04 345,-48.04 352,-48.04"/>
</g>
<!-- dir1 -->
<g id="node5" class="node">
<title>dir1</title>
<polygon fill="none" stroke="black" points="146.5,-73.5 146.5,-109.5 200.5,-109.5 200.5,-73.5 146.5,-73.5"/>
<text xml:space="preserve" text-anchor="middle" x="173.25" y="-86.45" font-family="Times New Roman,serif" font-size="14.00">01</text>
</g>
<!-- dir1&#45;&gt;bucket1 -->
<g id="edge2" class="edge">
<title>dir1&#45;&gt;bucket1</title>
<path fill="none" stroke="black" d="M183.67,-73.31C188.46,-65.2 194.3,-55.34 199.66,-46.28"/>
<polygon fill="black" stroke="black" points="202.58,-48.22 204.66,-37.83 196.55,-44.66 202.58,-48.22"/>
</g>
<!-- dir2 -->
<g id="node6" class="node">
<title>dir2</title>
<polygon fill="none" stroke="black" points="44.5,-73.5 44.5,-109.5 98.5,-109.5 98.5,-73.5 44.5,-73.5"/>
<text xml:space="preserve" text-anchor="middle" x="71.25" y="-86.45" font-family="Times New Roman,serif" font-size="14.00">10</text>
</g>
<!-- dir2&#45;&gt;bucket2 -->
<g id="edge3" class="edge">
<title>dir2&#45;&gt;bucket2</title>
<path fill="none" stroke="black" d="M71.5,-73.31C71.5,-65.73 71.5,-56.6 71.5,-48.04"/>
<polygon fill="black" stroke="black" points="75,-48.04 71.5,-38.04 68,-48.04 75,-48.04"/>
</g>
<!-- dir3 -->
<g id="node7" class="node">
<title>dir3</title>
<polygon fill="none" stroke="black" points="218.5,-73.5 218.5,-109.5 272.5,-109.5 272.5,-73.5 218.5,-73.5"/>
<text xml:space="preserve" text-anchor="middle" x="245.25" y="-86.45" font-family="Times New Roman,serif" font-size="14.00">11</text>
</g>
<!-- dir3&#45;&gt;bucket1 -->
<g id="edge4" class="edge">
<title>dir3&#45;&gt;bucket1</title>
<path fill="none" stroke="black" d="M238.24,-73.31C234.88,-65.38 230.82,-55.76 227.06,-46.86"/>
<polygon fill="black" stroke="black" points="230.4,-45.77 223.28,-37.92 223.95,-48.5 230.4,-45.77"/>
</g>
</g>
</svg>
