<?xml version="1.0" encoding="UTF-8" standalone="no"?>
<!DOCTYPE svg PUBLIC "-//W3C//DTD SVG 1.1//EN"
 "http://www.w3.org/Graphics/SVG/1.1/DTD/svg11.dtd">
<!-- Generated by graphviz version 14.1.5 (20260411.2331)
 -->
<!-- Title: HashTable Pages: 1 -->
<svg width="609pt" height="143pt"
 viewBox="0.00 0.00 609.00 143.00" xmlns="http://www.w3.org/2000/svg" xmlns:xlink="http://www.w3.org/1999/xlink">
<g id="graph0" class="graph" transform="scale(1 1) rotate(0) translate(4 138.5)">
<title>HashTable</title>
<polygon fill="white" stroke="none" points="-4,4 -4,-138.5 605.25,-138.5 605.25,4 -4,4"/>
<text xml:space="preserve" text-anchor="middle" x="300.62" y="-117.2" font-family="Times New Roman,serif" font-size="14.00">Global Depth: 3</text>
<!-- bucket2 -->
<g id="node1" class="node">
<title>bucket2</title>
<polygon fill="none" stroke="black" points="0,-0.5 0,-36.5 107.75,-36.5 107.75,-0.5 0,-0.5"/>
<text xml:space="preserve" text-anchor="middle" x="24.12" y="-13.45" font-family="Times New Roman,serif" font-size="14.00">LD: 3</text>
<polyline fill="none" stroke="black" points="48.25,-0.5 48.25,-36.5"/>
<text xml:space="preserve" text-anchor="middle" x="78" y="-13.45" font-family="Times New Roman,serif" font-size="14.00">[10, 50]</text>
</g>
<!-- bucket0 -->
<g id="node2" class="node">
<title>bucket0</title>
<polygon fill="none" stroke="black" points="135,-0.5 135,-36.5 242.75,-36.5 242.75,-0.5 135,-0.5"/>
<text xml:space="preserve" text-anchor="middle" x="159.12" y="-13.45" font-family="Times New Roman,serif" font-size="14.00">LD: 2</text>
<polyline fill="none" stroke="black" points="183.25,-0.5 183.25,-36.5"/>
<text xml:space="preserve" text-anchor="middle" x="213" y="-13.45" font-family="Times New Roman,serif" font-size="14.00">[20, 40]</text>
</g>
<!-- bucket1 -->
<g id="node3" class="node">
<title>bucket1</title>
<polygon fill="none" stroke="black" points="341.25,-0.5 341.25,-36.5 414.5,-36.5 414.5,-0.5 341.25,-0.5"/>
<text xml:space="preserve" text-anchor="middle" x="365.38" y="-13.45" font-family="Times New Roman,serif" font-size="14.00">LD: 1</text>
<polyline fill="none" stroke="black" points="389.5,-0.5 389.5,-36.5"/>
<text xml:space="preserve" text-anchor="middle" x="402" y="-13.45" font-family="Times New Roman,serif" font-size="14.00">[]</text>
</g>
<!-- bucket3 -->
<g id="node4" class="node">
<title>bucket3</title>
<polygon fill="none" stroke="black" points="514.5,-0.5 514.5,-36.5 601.25,-36.5 601.25,-0.5 514.5,-0.5"/>
<text xml:space="preserve" text-anchor="middle" x="538.62" y="-13.45" font-family="Times New Roman,serif" font-size="14.00">LD: 3</text>
<polyline fill="none" stroke="black" points="562.75,-0.5 562.75,-36.5"/>
<text xml:space="preserve" text-anchor="middle" x="582" y="-13.45" font-family="Times New Roman,serif" font-size="14.00">[30]</text>
</g>
<!-- dir0 -->
<g id="node5" class="node">
<title>dir0</title>
<polygon fill="none" stroke="black" points="98.88,-73.5 98.88,-109.5 152.88,-109.5 152.88,-73.5 98.88,-73.5"/>
<text xml:space="preserve" text-anchor="middle" x="125.5" y="-86.45" font-family="Times New Roman,serif" font-size="14.00">000</text>
</g>
<!-- dir0&#45;&gt;bucket0 -->
<g id="edge1" class="edge">
<title>dir0&#45;&gt;bucket0</title>
<path fill="none" stroke="black" d="M141.13,-73.31C148.63,-64.85 157.83,-54.48 166.15,-45.11"/>
<polygon fill="black" stroke="black" points="168.74,-47.46 172.76,-37.66 163.51,-42.82 168.74,-47.46"/>
</g>
<!-- dir1 -->
<g id="node6" class="node">
<title>dir1</title>
<polygon fill="none" stroke="black" points="242.88,-73.5 242.88,-109.5 296.88,-109.5 296.88,-73.5 242.88,-73.5"/>
<text xml:space="preserve" text-anchor="middle" x="269.5" y="-86.45" font-family="Times New Roman,serif" font-size="14.00">001</text>
</g>
<!-- dir1&#45;&gt;bucket1 -->
<g id="edge2" class="edge">
<title>dir1&#45;&gt;bucket1</title>
<path fill="none" stroke="black" d="M296.29,-73.13C310.02,-64.11 327,-52.94 341.91,-43.14"/>
<polygon fill="black" stroke="black" points="343.66,-46.18 350.09,-37.77 339.81,-40.34 343.66,-46.18"/>
</g>
<!-- dir2 -->
<g id="node7" class="node">
<title>dir2</title>
<polygon fill="none" stroke="black" points="26.88,-73.5 26.88,-109.5 80.88,-109.5 80.88,-73.5 26.88,-73.5"/>
<text xml:space="preserve" text-anchor="middle" x="53.5" y="-86.45" font-family="Times New Roman,serif" font-size="14.00">010</text>
</g>
<!-- dir2&#45;&gt;bucket2 -->
<g id="edge3" class="edge">
<title>dir2&#45;&gt;bucket2</title>
<path fill="none" stroke="black" d="M53.88,-73.31C53.88,-65.73 53.88,-56.6 53.88,-48.04"/>
<polygon fill="black" stroke="black" points="57.38,-48.04 53.88,-38.04 50.38,-48.04 57.38,-48.04"/>
</g>
<!-- dir3 -->
<g id="node8" class="node">
<title>dir3</title>
<polygon fill="none" stroke="black" points="314.88,-73.5 314.88,-109.5 368.88,-109.5 368.88,-73.5 314.88,-73.5"/>
<text xml:space="preserve" text-anchor="middle" x="341.5" y="-86.45" font-family="Times New Roman,serif" font-size="14.00">011</text>
</g>
<!-- dir3&#45;&gt;bucket1 -->
<g id="edge4" class="edge">
<title>dir3&#45;&gt;bucket1</title>
<path fill="none" stroke="black" d="M350.59,-73.31C354.66,-65.29 359.6,-55.55 364.15,-46.57"/>
<polygon fill="black" stroke="black" points="367.16,-48.38 368.56,-37.88 360.91,-45.21 367.16,-48.38"/>
</g>
<!-- dir4 -->
<g id="node9" class="node">
<title>dir4</title>
<polygon fill="none" stroke="black" points="170.88,-73.5 170.88,-109.5 224.88,-109.5 224.88,-73.5 170.88,-73.5"/>
<text xml:space="preserve" text-anchor="middle" x="197.5" y="-86.45" font-family="Times New Roman,serif" font-size="14.00">100</text>
</g>
<!-- dir4&#45;&gt;bucket0 -->
<g id="edge5" class="edge">
<title>dir4&#45;&gt;bucket0</title>
<path fill="none" stroke="black" d="M195.7,-73.31C194.72,-65.64 193.55,-56.39 192.46,-47.74"/>
<polygon fill="black" stroke="black" points="195.95,-47.51 191.22,-38.03 189.01,-48.39 195.95,-47.51"/>
</g>
<!-- dir5 -->
<g id="node10" class="node">
<title>dir5</title>
<polygon fill="none" stroke="black" points="386.88,-73.5 386.88,-109.5 440.88,-109.5 440.88,-73.5 386.88,-73.5"/>
<text xml:space="preserve" text-anchor="middle" x="413.5" y="-86.45" font-family="Times New Roman,serif" font-size="14.00">101</text>
</g>
<!-- dir5&#45;&gt;bucket1 -->
<g id="edge6" class="edge">
<title>dir5&#45;&gt;bucket1</title>
<path fill="none" stroke="black" d="M405.16,-73.31C401.09,-65.29 396.15,-55.55 391.6,-46.57"/>
<polygon fill="black" stroke="black" points="394.84,-45.21 387.19,-37.88 388.59,-48.38 394.84,-45.21"/>
</g>
<!-- dir6 -->
<g id="node11" class="node">
<title>dir6</title>
<polygon fill="none" stroke="black" points="530.88,-73.5 530.88,-109.5 584.88,-109.5 584.88,-73.5 530.88,-73.5"/>
<text xml:space="preserve" text-anchor="middle" x="557.5" y="-86.45" font-family="Times New Roman,serif" font-size="14.00">110</text>
</g>
<!-- dir6&#45;&gt;bucket3 -->
<g id="edge7" class="edge">
<title>dir6&#45;&gt;bucket3</title>
<path fill="none" stroke="black" d="M557.88,-73.31C557.88,-65.73 557.88,-56.6 557.88,-48.04"/>
<polygon fill="black" stroke="black" points="561.38,-48.04 557.88,-38.04 554.38,-48.04 561.38,-48.04"/>
</g>
<!-- dir7 -->
<g id="node12" class="node">
<title>dir7</title>
<polygon fill="none" stroke="black" points="458.88,-73.5 458.88,-109.5 512.88,-109.5 512.88,-73.5 458.88,-73.5"/>
<text xml:space="preserve" text-anchor="middle" x="485.5" y="-86.45" font-family="Times New Roman,serif" font-size="14.00">111</text>
</g>
<!-- dir7&#45;&gt;bucket1 -->
<g id="edge8" class="edge">
<title>dir7&#45;&gt;bucket1</title>
<path fill="none" stroke="black" d="M459.46,-73.13C445.73,-64.11 428.75,-52.94 413.84,-43.14"/>
<polygon fill="black" stroke="black" points="415.94,-40.34 405.66,-37.77 412.09,-46.18 415.94,-40.34"/>
</g>
</g>
</svg>
