<?xml version="1.0" encoding="UTF-8" standalone="no"?>
<!DOCTYPE svg PUBLIC "-//W3C//DTD SVG 1.1//EN"
 "http://www.w3.org/Graphics/SVG/1.1/DTD/svg11.dtd">
<!-- Generated by graphviz version 14.1.5 (20260411.2331)
 -->
<!-- Title: HashTable Pages: 1 -->
<svg width="208pt" height="143pt"
 viewBox="0.00 0.00 208.00 143.00" xmlns="http://www.w3.org/2000/svg" xmlns:xlink="http://www.w3.org/1999/xlink">
<g id="graph0" class="graph" transform="scale(1 1) rotate(0) translate(4 138.5)">
<title>HashTable</title>
<polygon fill="white" stroke="none" points="-4,4 -4,-138.5 203.5,-138.5 203.5,4 -4,4"/>
<text xml:space="preserve" text-anchor="middle" x="99.75" y="-117.2" font-family="Times New Roman,serif" font-size="14.00">Global Depth: 1</text>
<!-- bucket0 -->
<g id="node1" class="node">
<title>bucket0</title>
<polygon fill="none" stroke="black" points="0,-0.5 0,-36.5 107.75,-36.5 107.75,-0.5 0,-0.5"/>
<text xml:space="preserve" text-anchor="middle" x="24.12" y="-13.45" font-family="Times New Roman,serif" font-size="14.00">LD: 1</text>
<polyline fill="none" stroke="black" points="48.25,-0.5 48.25,-36.5"/>
<text xml:space="preserve" text-anchor="middle" x="78" y="-13.45" font-family="Times New Roman,serif" font-size="14.00">[10, 30]</text>
</g>
<!-- bucket1 -->
<g id="node2" class="node">
<title>bucket1</title>
<polygon fill="none" stroke="black" points="126.25,-0.5 126.25,-36.5 199.5,-36.5 199.5,-0.5 126.25,-0.5"/>
<text xml:space="preserve" text-anchor="middle" x="150.38" y="-13.45" font-family="Times New Roman,serif" font-size="14.00">LD: 1</text>
<polyline fill="none" stroke="black" points="174.5,-0.5 174.5,-36.5"/>
<text xml:space="preserve" text-anchor="middle" x="187" y="-13.45" font-family="Times New Roman,serif" font-size="14.00">[]</text>
</g>
<!-- dir0 -->
<g id="node3" class="node">
<title>dir0</title>
<polygon fill="none" stroke="black" points="26.88,-73.5 26.88,-109.5 80.88,-109.5 80.88,-73.5 26.88,-73.5"/>
<text xml:space="preserve" text-anchor="middle" x="53.75" y="-86.45" font-family="Times New Roman,serif" font-size="14.00">0</text>
</g>
<!-- dir0&#45;&gt;bucket0 -->
<g id="edge1" class="edge">
<title>dir0&#45;&gt;bucket0</title>
<path fill="none" stroke="black" d="M53.88,-73.31C53.88,-65.73 53.88,-56.6 53.88,-48.04"/>
<polygon fill="black" stroke="black" points="57.38,-48.04 53.88,-38.04 50.38,-48.04 57.38,-48.04"/>
</g>
<!-- dir1 -->
<g id="node4" class="node">
<title>dir1</title>
<polygon fill="none" stroke="black" points="135.88,-73.5 135.88,-109.5 189.88,-109.5 189.88,-73.5 135.88,-73.5"/>
<text xml:space="preserve" text-anchor="middle" x="162.75" y="-86.45" font-family="Times New Roman,serif" font-size="14.00">1</text>
</g>
<!-- dir1&#45;&gt;bucket1 -->
<g id="edge2" class="edge">
<title>dir1&#45;&gt;bucket1</title>
<path fill="none" stroke="black" d="M162.88,-73.31C162.88,-65.73 162.88,-56.6 162.88,-48.04"/>
<polygon fill="black" stroke="black" points="166.38,-48.04 162.88,-38.04 159.38,-48.04 166.38,-48.04"/>
</g>
</g>
</svg>
