<?xml version="1.0" encoding="UTF-8" standalone="no"?>
<!DOCTYPE svg PUBLIC "-//W3C//DTD SVG 1.1//EN"
 "http://www.w3.org/Graphics/SVG/1.1/DTD/svg11.dtd">
<!-- Generated by graphviz version 14.1.5 (20260411.2331)
 -->
<!-- Title: HashTable Pages: 1 -->
<svg width="698pt" height="118pt"
 viewBox="0.00 0.00 698.00 118.00" xmlns="http://www.w3.org/2000/svg" xmlns:xlink="http://www.w3.org/1999/xlink">
<g id="graph0" class="graph" transform="scale(1 1) rotate(0) translate(4 114)">
<title>HashTable</title>
<polygon fill="white" stroke="none" points="-4,4 -4,-114 693.5,-114 693.5,4 -4,4"/>
<!-- bucket2 -->
<g id="node1" class="node">
<title>bucket2</title>
<polygon fill="none" stroke="black" points="0,-0.5 0,-36.5 143,-36.5 143,-0.5 0,-0.5"/>
<text xml:space="preserve" text-anchor="middle" x="24.12" y="-13.45" font-family="Times New Roman,serif" font-size="14.00">LD: 3</text>
<polyline fill="none" stroke="black" points="48.25,-0.5 48.25,-36.5"/>
<text xml:space="preserve" text-anchor="middle" x="95.62" y="-13.45" font-family="Times New Roman,serif" font-size="14.00">Keys: [10, 50]</text>
</g>
<!-- bucket0 -->
<g id="node2" class="node">
<title>bucket0</title>
<polygon fill="none" stroke="black" points="161,-0.5 161,-36.5 304,-36.5 304,-0.5 161,-0.5"/>
<text xml:space="preserve" text-anchor="middle" x="185.12" y="-13.45" font-family="Times New Roman,serif" font-size="14.00">LD: 2</text>
<polyline fill="none" stroke="black" points="209.25,-0.5 209.25,-36.5"/>
<text xml:space="preserve" text-anchor="middle" x="256.62" y="-13.45" font-family="Times New Roman,serif" font-size="14.00">Keys: [20, 40]</text>
</g>
<!-- bucket1 -->
<g id="node3" class="node">
<title>bucket1</title>
<polygon fill="none" stroke="black" points="394.25,-0.5 394.25,-36.5 502.75,-36.5 502.75,-0.5 394.25,-0.5"/>
<text xml:space="preserve" text-anchor="middle" x="418.38" y="-13.45" font-family="Times New Roman,serif" font-size="14.00">LD: 1</text>
<polyline fill="none" stroke="black" points="442.5,-0.5 442.5,-36.5"/>
<text xml:space="preserve" text-anchor="middle" x="472.62" y="-13.45" font-family="Times New Roman,serif" font-size="14.00">Keys: []</text>
</g>
<!-- bucket3 -->
<g id="node4" class="node">
<title>bucket3</title>
<polygon fill="none" stroke="black" points="567.5,-0.5 567.5,-36.5 689.5,-36.5 689.5,-0.5 567.5,-0.5"/>
<text xml:space="preserve" text-anchor="middle" x="591.62" y="-13.45" font-family="Times New Roman,serif" font-size="14.00">LD: 3</text>
<polyline fill="none" stroke="black" points="615.75,-0.5 615.75,-36.5"/>
<text xml:space="preserve" text-anchor="middle" x="652.62" y="-13.45" font-family="Times New Roman,serif" font-size="14.00">Keys: [30]</text>
</g>
<!-- dir0 -->
<g id="node5" class="node">
<title>dir0</title>
<polygon fill="none" stroke="black" points="169.5,-73.5 169.5,-109.5 223.5,-109.5 223.5,-73.5 169.5,-73.5"/>
<text xml:space="preserve" text-anchor="middle" x="196.12" y="-86.45" font-family="Times New Roman,serif" font-size="14.00">000</text>
</g>
<!-- dir0&#45;&gt;bucket0 -->
<g id="edge1" class="edge">
<title>dir0&#45;&gt;bucket0</title>
<path fill="none" stroke="black" d="M205.21,-73.31C209.28,-65.29 214.22,-55.55 218.77,-46.57"/>
<polygon fill="black" stroke="black" points="221.78,-48.38 223.18,-37.88 215.54,-45.21 221.78,-48.38"/>
</g>
<!-- dir1 -->
<g id="node6" class="node">
<title>dir1</title>
<polygon fill="none" stroke="black" points="313.5,-73.5 313.5,-109.5 367.5,-109.5 367.5,-73.5 313.5,-73.5"/>
<text xml:space="preserve" text-anchor="middle" x="340.12" y="-86.45" font-family="Times New Roman,serif" font-size="14.00">001</text>
</g>
<!-- dir1&#45;&gt;bucket1 -->
<g id="edge2" class="edge">
<title>dir1&#45;&gt;bucket1</title>
<path fill="none" stroke="black" d="M366.92,-73.13C380.65,-64.11 397.63,-52.94 412.54,-43.14"/>
<polygon fill="black" stroke="black" points="414.28,-46.18 420.71,-37.77 410.44,-40.34 414.28,-46.18"/>
</g>
<!-- dir2 -->
<g id="node7" class="node">
<title>dir2</title>
<polygon fill="none" stroke="black" points="44.5,-73.5 44.5,-109.5 98.5,-109.5 98.5,-73.5 44.5,-73.5"/>
<text xml:space="preserve" text-anchor="middle" x="71.12" y="-86.45" font-family="Times New Roman,serif" font-size="14.00">010</text>
</g>
<!-- dir2&#45;&gt;bucket2 -->
<g id="edge3" class="edge">
<title>dir2&#45;&gt;bucket2</title>
<path fill="none" stroke="black" d="M71.5,-73.31C71.5,-65.73 71.5,-56.6 71.5,-48.04"/>
<polygon fill="black" stroke="black" points="75,-48.04 71.5,-38.04 68,-48.04 75,-48.04"/>
</g>
<!-- dir3 -->
<g id="node8" class="node">
<title>dir3</title>
<polygon fill="none" stroke="black" points="385.5,-73.5 385.5,-109.5 439.5,-109.5 439.5,-73.5 385.5,-73.5"/>
<text xml:space="preserve" text-anchor="middle" x="412.12" y="-86.45" font-family="Times New Roman,serif" font-size="14.00">011</text>
</g>
<!-- dir3&#45;&gt;bucket1 -->
<g id="edge4" class="edge">
<title>dir3&#45;&gt;bucket1</title>
<path fill="none" stroke="black" d="M421.21,-73.31C425.28,-65.29 430.22,-55.55 434.77,-46.57"/>
<polygon fill="black" stroke="black" points="437.78,-48.38 439.18,-37.88 431.54,-45.21 437.78,-48.38"/>
</g>
<!-- dir4 -->
<g id="node9" class="node">
<title>dir4</title>
<polygon fill="none" stroke="black" points="241.5,-73.5 241.5,-109.5 295.5,-109.5 295.5,-73.5 241.5,-73.5"/>
<text xml:space="preserve" text-anchor="middle" x="268.12" y="-86.45" font-family="Times New Roman,serif" font-size="14.00">100</text>
</g>
<!-- dir4&#45;&gt;bucket0 -->
<g id="edge5" class="edge">
<title>dir4&#45;&gt;bucket0</title>
<path fill="none" stroke="black" d="M259.79,-73.31C255.72,-65.29 250.78,-55.55 246.23,-46.57"/>
<polygon fill="black" stroke="black" points="249.46,-45.21 241.82,-37.88 243.22,-48.38 249.46,-45.21"/>
</g>
<!-- dir5 -->
<g id="node10" class="node">
<title>dir5</title>
<polygon fill="none" stroke="black" points="457.5,-73.5 457.5,-109.5 511.5,-109.5 511.5,-73.5 457.5,-73.5"/>
<text xml:space="preserve" text-anchor="middle" x="484.12" y="-86.45" font-family="Times New Roman,serif" font-size="14.00">101</text>
</g>
<!-- dir5&#45;&gt;bucket1 -->
<g id="edge6" class="edge">
<title>dir5&#45;&gt;bucket1</title>
<path fill="none" stroke="black" d="M475.79,-73.31C471.72,-65.29 466.78,-55.55 462.23,-46.57"/>
<polygon fill="black" stroke="black" points="465.46,-45.21 457.82,-37.88 459.22,-48.38 465.46,-45.21"/>
</g>
<!-- dir6 -->
<g id="node11" class="node">
<title>dir6</title>
<polygon fill="none" stroke="black" points="601.5,-73.5 601.5,-109.5 655.5,-109.5 655.5,-73.5 601.5,-73.5"/>
<text xml:space="preserve" text-anchor="middle" x="628.12" y="-86.45" font-family="Times New Roman,serif" font-size="14.00">110</text>
</g>
<!-- dir6&#45;&gt;bucket3 -->
<g id="edge7" class="edge">
<title>dir6&#45;&gt;bucket3</title>
<path fill="none" stroke="black" d="M628.5,-73.31C628.5,-65.73 628.5,-56.6 628.5,-48.04"/>
<polygon fill="black" stroke="black" points="632,-48.04 628.5,-38.04 625,-48.04 632,-48.04"/>
</g>
<!-- dir7 -->
<g id="node12" class="node">
<title>dir7</title>
<polygon fill="none" stroke="black" points="529.5,-73.5 529.5,-109.5 583.5,-109.5 583.5,-73.5 529.5,-73.5"/>
<text xml:space="preserve" text-anchor="middle" x="556.12" y="-86.45" font-family="Times New Roman,serif" font-size="14.00">111</text>
</g>
<!-- dir7&#45;&gt;bucket1 -->
<g id="edge8" class="edge">
<title>dir7&#45;&gt;bucket1</title>
<path fill="none" stroke="black" d="M530.08,-73.13C516.35,-64.11 499.37,-52.94 484.46,-43.14"/>
<polygon fill="black" stroke="black" points="486.56,-40.34 476.29,-37.77 482.72,-46.18 486.56,-40.34"/>
</g>
</g>
</svg>
