<?xml version="1.0" encoding="UTF-8" standalone="no"?>
<!DOCTYPE svg PUBLIC "-//W3C//DTD SVG 1.1//EN"
 "http://www.w3.org/Graphics/SVG/1.1/DTD/svg11.dtd">
<!-- Generated by graphviz version 14.1.5 (20260411.2331)
 -->
<!-- Title: HashTable Pages: 1 -->
<svg width="278pt" height="118pt"
 viewBox="0.00 0.00 278.00 118.00" xmlns="http://www.w3.org/2000/svg" xmlns:xlink="http://www.w3.org/1999/xlink">
<g id="graph0" class="graph" transform="scale(1 1) rotate(0) translate(4 114)">
<title>HashTable</title>
<polygon fill="white" stroke="none" points="-4,4 -4,-114 273.75,-114 273.75,4 -4,4"/>
<!-- bucket1 -->
<g id="node1" class="node">
<title>bucket1</title>
<polygon fill="none" stroke="black" points="0,-0.5 0,-36.5 108.5,-36.5 108.5,-0.5 0,-0.5"/>
<text xml:space="preserve" text-anchor="middle" x="24.12" y="-13.45" font-family="Times New Roman,serif" font-size="14.00">LD: 1</text>
<polyline fill="none" stroke="black" points="48.25,-0.5 48.25,-36.5"/>
<text xml:space="preserve" text-anchor="middle" x="78.38" y="-13.45" font-family="Times New Roman,serif" font-size="14.00">Keys: []</text>
</g>
<!-- bucket0 -->
<g id="node2" class="node">
<title>bucket0</title>
<polygon fill="none" stroke="black" points="126.75,-0.5 126.75,-36.5 269.75,-36.5 269.75,-0.5 126.75,-0.5"/>
<text xml:space="preserve" text-anchor="middle" x="150.88" y="-13.45" font-family="Times New Roman,serif" font-size="14.00">LD: 1</text>
<polyline fill="none" stroke="black" points="175,-0.5 175,-36.5"/>
<text xml:space="preserve" text-anchor="middle" x="222.38" y="-13.45" font-family="Times New Roman,serif" font-size="14.00">Keys: [10, 30]</text>
</g>
<!-- dir0 -->
<g id="node3" class="node">
<title>dir0</title>
<polygon fill="none" stroke="black" points="171.25,-73.5 171.25,-109.5 225.25,-109.5 225.25,-73.5 171.25,-73.5"/>
<text xml:space="preserve" text-anchor="middle" x="198.12" y="-86.45" font-family="Times New Roman,serif" font-size="14.00">0</text>
</g>
<!-- dir0&#45;&gt;bucket0 -->
<g id="edge1" class="edge">
<title>dir0&#45;&gt;bucket0</title>
<path fill="none" stroke="black" d="M198.25,-73.31C198.25,-65.73 198.25,-56.6 198.25,-48.04"/>
<polygon fill="black" stroke="black" points="201.75,-48.04 198.25,-38.04 194.75,-48.04 201.75,-48.04"/>
</g>
<!-- dir1 -->
<g id="node4" class="node">
<title>dir1</title>
<polygon fill="none" stroke="black" points="27.25,-73.5 27.25,-109.5 81.25,-109.5 81.25,-73.5 27.25,-73.5"/>
<text xml:space="preserve" text-anchor="middle" x="54.12" y="-86.45" font-family="Times New Roman,serif" font-size="14.00">1</text>
</g>
<!-- dir1&#45;&gt;bucket1 -->
<g id="edge2" class="edge">
<title>dir1&#45;&gt;bucket1</title>
<path fill="none" stroke="black" d="M54.25,-73.31C54.25,-65.73 54.25,-56.6 54.25,-48.04"/>
<polygon fill="black" stroke="black" points="57.75,-48.04 54.25,-38.04 50.75,-48.04 57.75,-48.04"/>
</g>
</g>
</svg>
