<?xml version="1.0" encoding="UTF-8" standalone="no"?>
<!DOCTYPE svg PUBLIC "-//W3C//DTD SVG 1.1//EN"
 "http://www.w3.org/Graphics/SVG/1.1/DTD/svg11.dtd">
<!-- Generated by graphviz version 14.1.5 (20260411.2331)
 -->
<!-- Title: HashTable Pages: 1 -->
<svg width="334pt" height="143pt"
 viewBox="0.00 0.00 334.00 143.00" xmlns="http://www.w3.org/2000/svg" xmlns:xlink="http://www.w3.org/1999/xlink">
<g id="graph0" class="graph" transform="scale(1 1) rotate(0) translate(4 138.5)">
<title>HashTable</title>
<polygon fill="white" stroke="none" points="-4,4 -4,-138.5 330.25,-138.5 330.25,4 -4,4"/>
<text xml:space="preserve" text-anchor="middle" x="163.12" y="-117.2" font-family="Times New Roman,serif" font-size="14.00">Global Depth: 2</text>
<!-- bucket2 -->
<g id="node1" class="node">
<title>bucket2</title>
<polygon fill="none" stroke="black" points="0,-0.5 0,-36.5 107.75,-36.5 107.75,-0.5 0,-0.5"/>
<text xml:space="preserve" text-anchor="middle" x="24.12" y="-13.45" font-family="Times New Roman,serif" font-size="14.00">LD: 2</text>
<polyline fill="none" stroke="black" points="48.25,-0.5 48.25,-36.5"/>
<text xml:space="preserve" text-anchor="middle" x="78" y="-13.45" font-family="Times New Roman,serif" font-size="14.00">[10, 30]</text>
</g>
<!-- bucket1 -->
<g id="node2" class="node">
<title>bucket1</title>
<polygon fill="none" stroke="black" points="137.25,-0.5 137.25,-36.5 210.5,-36.5 210.5,-0.5 137.25,-0.5"/>
<text xml:space="preserve" text-anchor="middle" x="161.38" y="-13.45" font-family="Times New Roman,serif" font-size="14.00">LD: 1</text>
<polyline fill="none" stroke="black" points="185.5,-0.5 185.5,-36.5"/>
<text xml:space="preserve" text-anchor="middle" x="198" y="-13.45" font-family="Times New Roman,serif" font-size="14.00">[]</text>
</g>
<!-- bucket0 -->
<g id="node3" class="node">
<title>bucket0</title>
<polygon fill="none" stroke="black" points="239.5,-0.5 239.5,-36.5 326.25,-36.5 326.25,-0.5 239.5,-0.5"/>
<text xml:space="preserve" text-anchor="middle" x="263.62" y="-13.45" font-family="Times New Roman,serif" font-size="14.00">LD: 2</text>
<polyline fill="none" stroke="black" points="287.75,-0.5 287.75,-36.5"/>
<text xml:space="preserve" text-anchor="middle" x="307" y="-13.45" font-family="Times New Roman,serif" font-size="14.00">[20]</text>
</g>
<!-- dir0 -->
<g id="node4" class="node">
<title>dir0</title>
<polygon fill="none" stroke="black" points="255.88,-73.5 255.88,-109.5 309.88,-109.5 309.88,-73.5 255.88,-73.5"/>
<text xml:space="preserve" text-anchor="middle" x="282.62" y="-86.45" font-family="Times New Roman,serif" font-size="14.00">00</text>
</g>
<!-- dir0&#45;&gt;bucket0 -->
<g id="edge1" class="edge">
<title>dir0&#45;&gt;bucket0</title>
<path fill="none" stroke="black" d="M282.88,-73.31C282.88,-65.73 282.88,-56.6 282.88,-48.04"/>
<polygon fill="black" stroke="black" points="286.38,-48.04 282.88,-38.04 279.38,-48.04 286.38,-48.04"/>
</g>
<!-- dir1 -->
<g id="node5" class="node">
<title>dir1</title>
<polygon fill="none" stroke="black" points="98.88,-73.5 98.88,-109.5 152.88,-109.5 152.88,-73.5 98.88,-73.5"/>
<text xml:space="preserve" text-anchor="middle" x="125.62" y="-86.45" font-family="Times New Roman,serif" font-size="14.00">01</text>
</g>
<!-- dir1&#45;&gt;bucket1 -->
<g id="edge2" class="edge">
<title>dir1&#45;&gt;bucket1</title>
<path fill="none" stroke="black" d="M137.49,-73.31C143.04,-65.12 149.79,-55.12 155.97,-45.98"/>
<polygon fill="black" stroke="black" points="158.81,-48.03 161.51,-37.78 153.01,-44.11 158.81,-48.03"/>
</g>
<!-- dir2 -->
<g id="node6" class="node">
<title>dir2</title>
<polygon fill="none" stroke="black" points="26.88,-73.5 26.88,-109.5 80.88,-109.5 80.88,-73.5 26.88,-73.5"/>
<text xml:space="preserve" text-anchor="middle" x="53.62" y="-86.45" font-family="Times New Roman,serif" font-size="14.00">10</text>
</g>
<!-- dir2&#45;&gt;bucket2 -->
<g id="edge3" class="edge">
<title>dir2&#45;&gt;bucket2</title>
<path fill="none" stroke="black" d="M53.88,-73.31C53.88,-65.73 53.88,-56.6 53.88,-48.04"/>
<polygon fill="black" stroke="black" points="57.38,-48.04 53.88,-38.04 50.38,-48.04 57.38,-48.04"/>
</g>
<!-- dir3 -->
<g id="node7" class="node">
<title>dir3</title>
<polygon fill="none" stroke="black" points="170.88,-73.5 170.88,-109.5 224.88,-109.5 224.88,-73.5 170.88,-73.5"/>
<text xml:space="preserve" text-anchor="middle" x="197.62" y="-86.45" font-family="Times New Roman,serif" font-size="14.00">11</text>
</g>
<!-- dir3&#45;&gt;bucket1 -->
<g id="edge4" class="edge">
<title>dir3&#45;&gt;bucket1</title>
<path fill="none" stroke="black" d="M192.07,-73.31C189.41,-65.46 186.2,-55.97 183.22,-47.16"/>
<polygon fill="black" stroke="black" points="186.63,-46.32 180.12,-37.96 180,-48.56 186.63,-46.32"/>
</g>
</g>
</svg>
