<?xml version="1.0" encoding="UTF-8" standalone="no"?>
<!DOCTYPE svg PUBLIC "-//W3C//DTD SVG 1.1//EN"
 "http://www.w3.org/Graphics/SVG/1.1/DTD/svg11.dtd">
<!-- Generated by graphviz version 14.1.5 (20260411.2331)
 -->
<!-- Title: HashTable Pages: 1 -->
<svg width="208pt" height="143pt"
 viewBox="0.00 0.00 208.00 143.00" xmlns="http://www.w3.org/2000/svg" xmlns:xlink="http://www.w3.org/1999/xlink">
<g id="graph0" class="graph" transform="scale(1 1) rotate(0) translate(4 138.5)">
<title>HashTable</title>
<polygon fill="white" stroke="none" points="-4,4 -4,-138.5 203.5,-138.5 203.5,4 -4,4"/>
<text xml:space="preserve" text-anchor="middle" x="99.75" y="-117.2" font-family="Times New Roman,serif" font-size="14.00">Global Depth: 1</text>
<!-- bucket1 -->
<g id="node1" class="node">
<title>bucket1</title>
<polygon fill="none" stroke="black" points="0,-0.5 0,-36.5 73.25,-36.5 73.25,-0.5 0,-0.5"/>
<text xml:space="preserve" text-anchor="middle" x="24.12" y="-13.45" font-family="Times New Roman,serif" font-size="14.00">LD: 1</text>
<polyline fill="none" stroke="black" points="48.25,-0.5 48.25,-36.5"/>
<text xml:space="preserve" text-anchor="middle" x="60.75" y="-13.45" font-family="Times New Roman,serif" font-size="14.00">[]</text>
</g>
<!-- bucket0 -->
<g id="node2" class="node">
<title>bucket0</title>
<polygon fill="none" stroke="black" points="91.75,-0.5 91.75,-36.5 199.5,-36.5 199.5,-0.5 91.75,-0.5"/>
<text xml:space="preserve" text-anchor="middle" x="115.88" y="-13.45" font-family="Times New Roman,serif" font-size="14.00">LD: 1</text>
<polyline fill="none" stroke="black" points="140,-0.5 140,-36.5"/>
<text xml:space="preserve" text-anchor="middle" x="169.75" y="-13.45" font-family="Times New Roman,serif" font-size="14.00">[10, 20]</text>
</g>
<!-- dir0 -->
<g id="node3" class="node">
<title>dir0</title>
<polygon fill="none" stroke="black" points="118.62,-73.5 118.62,-109.5 172.62,-109.5 172.62,-73.5 118.62,-73.5"/>
<text xml:space="preserve" text-anchor="middle" x="145.5" y="-86.45" font-family="Times New Roman,serif" font-size="14.00">0</text>
</g>
<!-- dir0&#45;&gt;bucket0 -->
<g id="edge1" class="edge">
<title>dir0&#45;&gt;bucket0</title>
<path fill="none" stroke="black" d="M145.62,-73.31C145.62,-65.73 145.62,-56.6 145.62,-48.04"/>
<polygon fill="black" stroke="black" points="149.13,-48.04 145.63,-38.04 142.13,-48.04 149.13,-48.04"/>
</g>
<!-- dir1 -->
<g id="node4" class="node">
<title>dir1</title>
<polygon fill="none" stroke="black" points="9.62,-73.5 9.62,-109.5 63.62,-109.5 63.62,-73.5 9.62,-73.5"/>
<text xml:space="preserve" text-anchor="middle" x="36.5" y="-86.45" font-family="Times New Roman,serif" font-size="14.00">1</text>
</g>
<!-- dir1&#45;&gt;bucket1 -->
<g id="edge2" class="edge">
<title>dir1&#45;&gt;bucket1</title>
<path fill="none" stroke="black" d="M36.62,-73.31C36.62,-65.73 36.62,-56.6 36.62,-48.04"/>
<polygon fill="black" stroke="black" points="40.13,-48.04 36.63,-38.04 33.13,-48.04 40.13,-48.04"/>
</g>
</g>
</svg>
